<svg xmlns="http://www.w3.org/2000/svg" xmlns:xlink="http://www.w3.org/1999/xlink" width="1080" zoomAndPan="magnify" viewBox="0 0 810 809.999993" height="1080" preserveAspectRatio="xMidYMid meet" version="1.0"><rect x="-81" width="972" fill="#ffffff" y="-80.999999" height="971.999992" fill-opacity="1"/><rect x="-81" width="972" fill="#ffffff" y="-80.999999" height="971.999992" fill-opacity="1"/><path fill="#d43c89" d="M 20.25 405 C 41.441406 918.199219 768.746094 917.804688 789.75 405 C 768.699219 -107.925781 41.382812 -108.078125 20.25 405 Z M 20.25 405 " fill-opacity="1" fill-rule="nonzero"/><path fill="#b2005f" d="M 506.015625 394.496094 C 621.539062 380.019531 736.152344 403.1875 747.523438 405.710938 C 746.980469 323.554688 717.5625 248.085938 669.367188 188.917969 C 661.964844 198.871094 603.847656 273.609375 475.6875 326.089844 C 486.710938 348.339844 496.75 371.441406 506.015625 394.496094 Z M 506.015625 394.496094 " fill-opacity="1" fill-rule="nonzero"/><path fill="#b2005f" d="M 634.878906 150.855469 C 573.691406 96.203125 493.183594 63.082031 404.917969 63.082031 C 376.941406 63.261719 349.683594 66.703125 323.691406 72.859375 C 333.257812 85.707031 396.253906 171.851562 453.113281 276.445312 C 576.574219 230.121094 628.738281 159.722656 634.878906 150.855469 Z M 634.878906 150.855469 " fill-opacity="1" fill-rule="nonzero"/><path fill="#b2005f" d="M 391.433594 297.488281 C 334.035156 195.0625 271.941406 108.921875 262.738281 96.253906 C 165.808594 142.21875 93.070312 231.976562 70.6875 339.835938 C 86.207031 340.015625 229.164062 340.554688 391.433594 297.488281 Z M 391.433594 297.488281 " fill-opacity="1" fill-rule="nonzero"/><path fill="#b2005f" d="M 431.90625 407.738281 C 436.386719 406.296875 440.867188 404.863281 445.523438 403.605469 C 436.921875 384.027344 427.429688 364.265625 417.570312 345.042969 C 245.738281 396.601562 78.738281 394.445312 63.691406 394.265625 C 60.628906 485.636719 94.808594 572.328125 152.027344 635.535156 C 159.910156 622.054688 254.339844 465.222656 431.90625 407.738281 Z M 431.90625 407.738281 " fill-opacity="1" fill-rule="nonzero"/><path fill="#b2005f" d="M 464.617188 461.199219 C 275.117188 527.449219 206.9375 659.25 200.992188 671.523438 C 289.972656 744.445312 431.40625 764.476562 538.390625 715.871094 C 533.320312 686.25 513.914062 583.363281 466.714844 460.5 C 466.015625 460.847656 465.140625 461.027344 464.617188 461.199219 Z M 464.617188 461.199219 " fill-opacity="1" fill-rule="nonzero"/><path fill="#b2005f" d="M 533.273438 444.246094 C 577.34375 565.882812 595.253906 664.808594 598.9375 685.40625 C 674.4375 634.003906 728.335938 552.859375 743.433594 458.679688 C 731.84375 454.976562 638.96875 427.339844 533.273438 444.246094 Z M 533.273438 444.246094 " fill-opacity="1" fill-rule="nonzero"/></svg>