<svg xmlns="http://www.w3.org/2000/svg" xmlns:xlink="http://www.w3.org/1999/xlink" width="1080" zoomAndPan="magnify" viewBox="0 0 810 809.999993" height="1080" preserveAspectRatio="xMidYMid meet" version="1.0"><path fill="#1275b1" d="M 405 50.625 C 410.800781 50.625 416.59375 50.765625 422.386719 51.050781 C 428.179688 51.335938 433.964844 51.761719 439.734375 52.332031 C 445.507812 52.898438 451.261719 53.609375 456.996094 54.460938 C 462.734375 55.3125 468.445312 56.304688 474.136719 57.433594 C 479.824219 58.566406 485.480469 59.835938 491.105469 61.246094 C 496.730469 62.65625 502.320312 64.199219 507.871094 65.882812 C 513.417969 67.566406 518.925781 69.386719 524.386719 71.339844 C 529.847656 73.292969 535.253906 75.378906 540.613281 77.601562 C 545.972656 79.820312 551.273438 82.167969 556.515625 84.648438 C 561.757812 87.128906 566.9375 89.734375 572.050781 92.46875 C 577.164062 95.203125 582.210938 98.0625 587.183594 101.042969 C 592.160156 104.023438 597.058594 107.125 601.878906 110.347656 C 606.703125 113.570312 611.441406 116.910156 616.101562 120.363281 C 620.757812 123.816406 625.328125 127.386719 629.8125 131.0625 C 634.296875 134.742188 638.6875 138.53125 642.984375 142.425781 C 647.28125 146.320312 651.480469 150.316406 655.582031 154.417969 C 659.683594 158.519531 663.679688 162.71875 667.574219 167.015625 C 671.46875 171.3125 675.257812 175.703125 678.933594 180.1875 C 682.613281 184.671875 686.183594 189.242188 689.636719 193.898438 C 693.089844 198.558594 696.429688 203.296875 699.652344 208.121094 C 702.875 212.941406 705.976562 217.839844 708.957031 222.816406 C 711.9375 227.789062 714.796875 232.835938 717.53125 237.949219 C 720.265625 243.0625 722.871094 248.242188 725.351562 253.484375 C 727.832031 258.726562 730.179688 264.027344 732.398438 269.386719 C 734.617188 274.746094 736.707031 280.152344 738.660156 285.613281 C 740.613281 291.074219 742.433594 296.582031 744.117188 302.128906 C 745.800781 307.679688 747.34375 313.269531 748.753906 318.894531 C 750.164062 324.519531 751.433594 330.175781 752.566406 335.863281 C 753.695312 341.554688 754.6875 347.265625 755.539062 353.003906 C 756.390625 358.738281 757.101562 364.492188 757.667969 370.265625 C 758.238281 376.035156 758.664062 381.820312 758.949219 387.613281 C 759.234375 393.402344 759.375 399.199219 759.375 405 C 759.375 410.800781 759.234375 416.59375 758.949219 422.386719 C 758.664062 428.179688 758.238281 433.964844 757.667969 439.734375 C 757.101562 445.507812 756.390625 451.261719 755.539062 456.996094 C 754.6875 462.734375 753.695312 468.445312 752.566406 474.136719 C 751.433594 479.824219 750.164062 485.480469 748.753906 491.105469 C 747.34375 496.730469 745.800781 502.320312 744.117188 507.871094 C 742.433594 513.417969 740.613281 518.925781 738.660156 524.386719 C 736.707031 529.847656 734.617188 535.253906 732.398438 540.613281 C 730.179688 545.972656 727.832031 551.273438 725.351562 556.515625 C 722.871094 561.757812 720.265625 566.9375 717.53125 572.050781 C 714.796875 577.164062 711.9375 582.210938 708.957031 587.183594 C 705.976562 592.160156 702.875 597.058594 699.652344 601.878906 C 696.429688 606.703125 693.089844 611.441406 689.636719 616.101562 C 686.183594 620.757812 682.613281 625.328125 678.933594 629.8125 C 675.257812 634.296875 671.46875 638.6875 667.574219 642.984375 C 663.679688 647.28125 659.683594 651.480469 655.582031 655.582031 C 651.480469 659.683594 647.28125 663.679688 642.984375 667.574219 C 638.6875 671.46875 634.296875 675.257812 629.8125 678.933594 C 625.328125 682.613281 620.757812 686.183594 616.101562 689.636719 C 611.441406 693.089844 606.703125 696.429688 601.878906 699.652344 C 597.058594 702.875 592.160156 705.976562 587.183594 708.957031 C 582.210938 711.9375 577.164062 714.796875 572.050781 717.53125 C 566.9375 720.265625 561.757812 722.871094 556.515625 725.351562 C 551.273438 727.832031 545.972656 730.179688 540.613281 732.398438 C 535.253906 734.617188 529.847656 736.707031 524.386719 738.660156 C 518.925781 740.613281 513.417969 742.433594 507.871094 744.117188 C 502.320312 745.800781 496.730469 747.34375 491.105469 748.753906 C 485.480469 750.164062 479.824219 751.433594 474.136719 752.566406 C 468.445312 753.695312 462.734375 754.6875 456.996094 755.539062 C 451.261719 756.390625 445.507812 757.101562 439.734375 757.667969 C 433.964844 758.238281 428.179688 758.664062 422.386719 758.949219 C 416.59375 759.234375 410.800781 759.375 405 759.375 C 399.199219 759.375 393.402344 759.234375 387.613281 758.949219 C 381.820312 758.664062 376.035156 758.238281 370.265625 757.667969 C 364.492188 757.101562 358.738281 756.390625 353.003906 755.539062 C 347.265625 754.6875 341.554688 753.695312 335.863281 752.566406 C 330.175781 751.433594 324.519531 750.164062 318.894531 748.753906 C 313.269531 747.34375 307.679688 745.800781 302.128906 744.117188 C 296.582031 742.433594 291.074219 740.613281 285.613281 738.660156 C 280.152344 736.707031 274.746094 734.617188 269.386719 732.398438 C 264.027344 730.179688 258.726562 727.832031 253.484375 725.351562 C 248.242188 722.871094 243.0625 720.265625 237.949219 717.53125 C 232.832031 714.796875 227.789062 711.9375 222.816406 708.957031 C 217.839844 705.976562 212.941406 702.875 208.121094 699.652344 C 203.296875 696.429688 198.558594 693.089844 193.898438 689.636719 C 189.242188 686.183594 184.671875 682.613281 180.1875 678.933594 C 175.703125 675.257812 171.3125 671.46875 167.015625 667.574219 C 162.71875 663.679688 158.519531 659.683594 154.417969 655.582031 C 150.316406 651.480469 146.320312 647.28125 142.425781 642.984375 C 138.53125 638.6875 134.742188 634.296875 131.0625 629.8125 C 127.386719 625.328125 123.816406 620.757812 120.363281 616.101562 C 116.910156 611.441406 113.570312 606.703125 110.347656 601.878906 C 107.125 597.058594 104.023438 592.160156 101.042969 587.183594 C 98.0625 582.210938 95.203125 577.164062 92.46875 572.050781 C 89.734375 566.9375 87.128906 561.757812 84.648438 556.515625 C 82.167969 551.273438 79.820312 545.972656 77.601562 540.613281 C 75.378906 535.253906 73.292969 529.847656 71.339844 524.386719 C 69.386719 518.925781 67.566406 513.417969 65.882812 507.871094 C 64.199219 502.320312 62.65625 496.730469 61.246094 491.105469 C 59.835938 485.480469 58.566406 479.824219 57.433594 474.136719 C 56.304688 468.445312 55.3125 462.734375 54.460938 456.996094 C 53.609375 451.261719 52.898438 445.507812 52.332031 439.734375 C 51.761719 433.964844 51.335938 428.179688 51.050781 422.386719 C 50.765625 416.59375 50.625 410.800781 50.625 405 C 50.625 399.199219 50.765625 393.402344 51.050781 387.613281 C 51.335938 381.820312 51.761719 376.035156 52.332031 370.265625 C 52.898438 364.492188 53.609375 358.738281 54.460938 353.003906 C 55.3125 347.265625 56.304688 341.554688 57.433594 335.863281 C 58.566406 330.175781 59.835938 324.519531 61.246094 318.894531 C 62.65625 313.269531 64.199219 307.679688 65.882812 302.128906 C 67.566406 296.582031 69.386719 291.074219 71.339844 285.613281 C 73.292969 280.152344 75.378906 274.746094 77.601562 269.386719 C 79.820312 264.027344 82.167969 258.726562 84.648438 253.484375 C 87.128906 248.242188 89.734375 243.0625 92.46875 237.949219 C 95.203125 232.835938 98.0625 227.789062 101.042969 222.816406 C 104.023438 217.839844 107.125 212.941406 110.347656 208.121094 C 113.570312 203.296875 116.910156 198.558594 120.363281 193.898438 C 123.816406 189.242188 127.386719 184.671875 131.0625 180.1875 C 134.742188 175.703125 138.53125 171.3125 142.425781 167.015625 C 146.320312 162.71875 150.316406 158.519531 154.417969 154.417969 C 158.519531 150.316406 162.71875 146.320312 167.015625 142.425781 C 171.3125 138.53125 175.703125 134.742188 180.1875 131.0625 C 184.671875 127.386719 189.242188 123.816406 193.898438 120.363281 C 198.558594 116.910156 203.296875 113.570312 208.121094 110.347656 C 212.941406 107.125 217.839844 104.023438 222.816406 101.042969 C 227.789062 98.0625 232.832031 95.203125 237.949219 92.46875 C 243.0625 89.734375 248.242188 87.128906 253.484375 84.648438 C 258.726562 82.167969 264.027344 79.820312 269.386719 77.601562 C 274.746094 75.378906 280.152344 73.292969 285.613281 71.339844 C 291.074219 69.386719 296.582031 67.566406 302.128906 65.882812 C 307.679688 64.199219 313.269531 62.65625 318.894531 61.246094 C 324.519531 59.835938 330.175781 58.566406 335.863281 57.433594 C 341.554688 56.304688 347.265625 55.3125 353.003906 54.460938 C 358.738281 53.609375 364.492188 52.898438 370.265625 52.332031 C 376.035156 51.761719 381.820312 51.335938 387.613281 51.050781 C 393.402344 50.765625 399.199219 50.625 405 50.625 Z M 405 50.625 " fill-opacity="1" fill-rule="nonzero"/><path fill="#ffffff" d="M 319.410156 245.332031 C 319.410156 268.988281 298.902344 288.164062 273.609375 288.164062 C 248.316406 288.164062 227.8125 268.988281 227.8125 245.332031 C 227.8125 221.675781 248.316406 202.5 273.609375 202.5 C 298.902344 202.5 319.410156 221.675781 319.410156 245.332031 Z M 319.410156 245.332031 " fill-opacity="1" fill-rule="nonzero"/><path fill="#ffffff" d="M 234.074219 319.648438 L 312.359375 319.648438 L 312.359375 556.875 L 234.074219 556.875 Z M 234.074219 319.648438 " fill-opacity="1" fill-rule="nonzero"/><path fill="#ffffff" d="M 438.402344 319.648438 L 360.117188 319.648438 L 360.117188 556.875 L 438.402344 556.875 C 438.402344 556.875 438.402344 482.191406 438.402344 435.5 C 438.402344 407.46875 447.972656 379.320312 486.15625 379.320312 C 529.308594 379.320312 529.050781 416 528.847656 444.414062 C 528.585938 481.554688 529.214844 519.460938 529.214844 556.875 L 607.5 556.875 L 607.5 431.671875 C 606.835938 351.726562 586.003906 314.890625 517.472656 314.890625 C 476.769531 314.890625 451.542969 333.367188 438.402344 350.085938 Z M 438.402344 319.648438 " fill-opacity="1" fill-rule="nonzero"/></svg>