<?xml version="1.0" encoding="UTF-8" standalone="no"?>
<!DOCTYPE svg PUBLIC "-//W3C//DTD SVG 1.1//EN" "http://www.w3.org/Graphics/SVG/1.1/DTD/svg11.dtd">
<!-- Created with Vectornator (http://vectornator.io/) -->
<svg height="100%" stroke-miterlimit="10" style="fill-rule:nonzero;clip-rule:evenodd;stroke-linecap:round;stroke-linejoin:round;" version="1.1" viewBox="0 0 1350 1100" width="100%" xml:space="preserve" xmlns="http://www.w3.org/2000/svg" xmlns:vectornator="http://vectornator.io" xmlns:xlink="http://www.w3.org/1999/xlink">
<defs/>
<g id="Layer-1" vectornator:layerName="Layer 1">
<g fill="#f8f8f8" opacity="1" stroke="none" vectornator:layerName="Text 1">
<path d="M18.5 796C14.5 798 12.5 802 12.5 807C12.5 814 16.5 811 16.5 817C16.5 817 32.5 838 77.5 859C80.5 859 84.5 860 89.5 860C99.5 860 110.5 856 110.5 854L111.5 855C112.5 855 112.5 853 113.5 853C114.5 853 114.5 855 116.5 855C116.5 855 142.5 846 203.5 761C203.5 760 202.5 759 202.5 758C202.5 757 205.5 756 206.5 755C213.5 739 216.5 755 228.5 726C229.5 721 233.5 717 236.5 714C240.5 706 291.5 636 291.5 628C291.5 624 299.5 620 303.5 608C303.5 609 307.5 595 318.5 583L317.5 582C317.5 581 321.5 580 321.5 577C321.5 576 321.5 576 322.5 576C335.5 550 351.5 543 351.5 523C351.5 523 365.5 493 367.5 493C368.5 493 372.5 571 372.5 575L370.5 576C370.5 591 381.5 595 381.5 617C382.5 617 405.5 648 414.5 648C415.5 648 416.5 647 417.5 647C417.5 649 419.5 652 422.5 652C423.5 652 424.5 651 424.5 651C428.5 656 430.5 658 438.5 658C465.5 658 471.5 622 493.5 600C493.5 599 492.5 599 492.5 598C492.5 600 492.5 600 492.5 601C493.5 601 513.5 559 516.5 559C516.5 559 517.5 560 518.5 560C517.5 560 525.5 556 534.5 530L534.5 531C536.5 531 547.5 521 547.5 510L547.5 511C548.5 511 552.5 501 555.5 501C555.5 500 554.5 499 554.5 498C554.5 494 566.5 482 568.5 482C568.5 481 567.5 480 567.5 479C567.5 479 572.5 474 574.5 472C574.5 472 573.5 471 573.5 470C573.5 469 579.5 464 580.5 463C580.5 463 579.5 462 579.5 461C579.5 451 589.5 448 591.5 448C591.5 447 590.5 446 590.5 445C595.5 437 591.5 451 606.5 421C606.5 422 606.5 422 606.5 422C607.5 422 622.5 406 622.5 401C639.5 379 642.5 382 642.5 372C642.5 373 642.5 373 642.5 373C642.5 373 644.5 366 647.5 366C647.5 366 648.5 366 649.5 367C645.5 378 642.5 382 639.5 395C639.5 395 639.5 408 628.5 424C629.5 424 630.5 424 630.5 425C630.5 427 626.5 427 626.5 432C626.5 431 624.5 462 615.5 471C615.5 471 614.5 471 614.5 472C614.5 473 615.5 474 615.5 474C601.5 518 597.5 550 588.5 583L589.5 583C578.5 635 578.5 640 577.5 642C577.5 658 561.5 759 558.5 762C558.5 763 558.5 764 560.5 764L557.5 773C557.5 775 558.5 775 558.5 775C558.5 777 557.5 776 557.5 777C557.5 778 558.5 778 558.5 779C558.5 779 556.5 781 556.5 782C556.5 783 557.5 783 557.5 784C552.5 821 551.5 850 551.5 884C551.5 910 552.5 937 558.5 960C564.5 985 594.5 990 594.5 1000C592.5 1000 593.5 999 593.5 999C595.5 999 604.5 1020 641.5 1020C658.5 1020 672.5 1000 672.5 1000C674.5 996 625.5 982 625.5 951C624.5 940 623.5 928 623.5 915C623.5 907 624.5 896 624.5 894C624.5 893 623.5 893 623.5 892C623.5 892 628.5 823 630.5 823C631.5 823 631.5 823 631.5 824L630.5 823C630.5 822 632.5 821 632.5 821C639.5 723 667.5 619 696.5 525C699.5 514 709.5 495 709.5 485C709.5 486 709.5 486 709.5 486C712.5 486 741.5 393 756.5 362C756.5 360 756.5 349 770.5 331C772.5 331 795.5 283 795.5 276C813.5 240 823.5 217 828.5 212C828.5 213 827.5 213 827.5 213C828.5 213 837.5 197 837.5 196C837.5 195 837.5 194 837.5 194L837.5 195C838.5 195 849.5 181 849.5 166C849.5 162 844.5 157 844.5 154C844.5 154 845.5 153 845.5 152C843.5 150 831.5 140 831.5 137C831.5 137 830.5 138 829.5 138C828.5 138 827.5 137 827.5 137L828.5 136C825.5 136 823.5 135 821.5 135C821.5 134 822.5 133 822.5 133C812.5 133 794.5 125 781.5 125C777.5 125 763.5 127 763.5 129L764.5 130C759.5 130 761.5 132 759.5 132L758.5 131C756.5 133 755.5 136 753.5 137C752.5 139 690.5 215 687.5 218C687.5 221 682.5 221 682.5 223C682.5 224 683.5 225 683.5 225C666.5 242 638.5 289 634.5 289C634.5 289 612.5 326 606.5 326L606.5 325C605.5 325 600.5 329 585.5 356C582.5 356 582.5 356 582.5 357C582.5 357 583.5 358 583.5 359C536.5 424 579.5 352 525.5 437C525.5 442 515.5 443 496.5 478C487.5 489 485.5 491 484.5 491C484.5 491 484.5 491 484.5 490C484.5 490 483.5 494 468.5 519C468.5 519 443.5 564 437.5 564C436.5 564 436.5 556 436.5 552C436.5 473 444.5 411 444.5 411C444.5 407 443.5 403 443.5 401C443.5 400 444.5 399 444.5 399C444.5 397 443.5 397 443.5 397C445.5 361 449.5 321 453.5 288C452.5 287 451.5 287 451.5 287C456.5 267 457.5 251 457.5 235C457.5 181 437.5 148 381.5 148C366.5 148 364.5 154 364.5 164C364.5 169 365.5 174 365.5 180C365.5 184 363.5 185 363.5 187L365.5 188C363.5 193 360.5 205 360.5 213C360.5 218 364.5 217 364.5 222L364.5 221C363.5 221 353.5 240 353.5 256C353.5 257 354.5 256 354.5 258C354.5 258 337.5 287 337.5 302C337.5 303 337.5 303 338.5 303C331.5 324 335.5 322 323.5 343C322.5 343 314.5 357 314.5 362C315.5 362 317.5 364 317.5 364C317.5 364 303.5 367 303.5 391C302.5 391 290.5 410 290.5 419C290.5 420 291.5 420 291.5 421C280.5 442 297.5 417 267.5 471C262.5 471 238.5 519 189.5 616L190.5 617C190.5 618 185.5 620 185.5 622C185.5 622 186.5 622 186.5 623C185.5 623 173.5 640 173.5 643C173.5 644 174.5 645 174.5 645C174.5 647 169.5 646 169.5 651C166.5 654 173.5 660 150.5 683C149.5 683 138.5 690 138.5 698C138.5 698 139.5 699 139.5 700C134.5 705 134.5 708 129.5 711C129.5 710 129.5 710 129.5 710C129.5 710 108.5 742 108.5 745C108.5 747 104.5 747 104.5 748L105.5 749L104.5 750C103.5 750 102.5 749 102.5 749C102.5 756 82.5 774 81.5 775C81.5 776 82.5 777 82.5 778C72.5 784 66.5 794 57.5 800C51.5 799 47.5 798 41.5 796C39.5 798 35.5 800 33.5 800C31.5 800 29.5 796 18.5 796ZM88.5 801C85.5 803 84.5 806 80.5 806C88.5 796 97.5 788 107.5 778C107.5 777 106.5 776 106.5 775C105.5 775 105.5 775 105.5 775C105.5 774 129.5 759 129.5 745C131.5 745 132.5 746 132.5 747C132.5 747 132.5 748 131.5 748C131.5 746 133.5 739 155.5 711C159.5 706 156.5 700 175.5 681C175.5 680 174.5 680 174.5 679C174.5 675 213.5 621 227.5 594C226.5 595 226.5 595 226.5 595C226.5 594 236.5 581 236.5 577C242.5 557 245.5 573 251.5 547C254.5 548 251.5 546 255.5 542C267.5 516 267.5 515 268.5 515L268.5 516C269.5 516 270.5 514 284.5 485C284.5 484 287.5 483 287.5 482C305.5 447 324.5 415 337.5 373C337.5 372 336.5 371 336.5 370C336.5 371 335.5 371 335.5 371C334.5 371 334.5 371 334.5 371C347.5 364 327.5 378 361.5 316C360.5 316 360.5 316 360.5 317C361.5 317 365.5 292 378.5 267C378.5 267 377.5 267 377.5 266C377.5 266 382.5 259 382.5 248C383.5 248 384.5 249 384.5 250C384.5 263 375.5 293 368.5 307C368.5 307 367.5 326 355.5 342C355.5 343 357.5 358 357.5 358C357.5 362 350.5 365 301.5 469C289.5 495 285.5 503 285.5 502L286.5 503C286.5 506 282.5 512 265.5 541L265.5 540C264.5 540 257.5 564 176.5 691C176.5 691 176.5 692 176.5 693C176.5 694 176.5 694 176.5 694C159.5 711 159.5 719 153.5 725C152.5 725 141.5 737 141.5 742C141.5 745 129.5 769 88.5 801ZM440.5 595C439.5 596 439.5 596 439.5 596C438.5 596 438.5 595 438.5 594C438.5 583 454.5 568 454.5 568C454.5 566 453.5 566 453.5 564C453.5 562 456.5 558 470.5 544C470.5 543 469.5 542 469.5 542C469.5 541 470.5 541 470.5 541C489.5 510 489.5 514 491.5 512C491.5 511 490.5 510 490.5 509C490.5 506 493.5 514 508.5 485L507.5 486C515.5 479 523.5 465 523.5 463C533.5 455 534.5 451 534.5 450C534.5 448 531.5 450 531.5 448C531.5 446 534.5 442 549.5 427C548.5 428 548.5 428 548.5 428C552.5 428 565.5 406 568.5 403C568.5 402 567.5 401 567.5 400C567.5 400 574.5 399 574.5 391C574.5 382 578.5 394 589.5 370C589.5 370 597.5 363 599.5 357C598.5 357 633.5 323 633.5 312C633.5 307 675.5 258 696.5 226C696.5 226 710.5 216 713.5 207C713.5 208 713.5 208 713.5 208C713.5 208 715.5 192 731.5 184C731.5 194 732.5 182 707.5 217C707.5 226 688.5 228 688.5 243C688.5 244 689.5 244 689.5 245C689.5 245 669.5 254 669.5 268C669.5 269 670.5 270 670.5 270C669.5 272 665.5 272 665.5 274C665.5 275 666.5 276 666.5 276C666.5 276 646.5 292 646.5 299C646.5 300 647.5 301 647.5 301C645.5 303 637.5 310 637.5 311C637.5 312 638.5 313 638.5 314C628.5 314 630.5 323 621.5 337C617.5 341 616.5 342 616.5 343L617.5 343C617.5 344 615.5 349 594.5 370C579.5 370 596.5 381 562.5 415C562.5 415 550.5 429 550.5 432C550.5 433 551.5 433 551.5 433C549.5 433 544.5 443 537.5 449C537.5 451 538.5 451 538.5 452C538.5 455 535.5 460 519.5 476C520.5 476 520.5 477 520.5 477C520.5 478 514.5 479 514.5 483C514.5 484 515.5 485 515.5 485C513.5 486 513.5 486 513.5 487C513.5 487 514.5 487 514.5 488C514.5 490 492.5 507 492.5 515C492.5 516 493.5 517 493.5 518C488.5 518 494.5 520 483.5 529C484.5 529 485.5 529 485.5 529C485.5 530 475.5 537 475.5 542C475.5 543 476.5 544 476.5 544C472.5 544 458.5 569 453.5 574C453.5 575 453.5 576 453.5 577L453.5 576C452.5 576 444.5 595 440.5 595ZM720.5 267C722.5 264 723.5 262 724.5 259C725.5 260 725.5 261 725.5 261C725.5 262 724.5 266 723.5 269C716.5 276 682.5 347 682.5 360C682.5 361 683.5 361 683.5 362C639.5 405 676.5 368 642.5 478C602.5 608 585.5 712 570.5 914C569.5 914 569.5 913 569.5 912C569.5 766 593.5 635 625.5 514C626.5 507 627.5 504 627.5 502C627.5 501 626.5 501 626.5 501L626.5 502C626.5 502 632.5 491 660.5 397C669.5 373 687.5 316 700.5 303C700.5 302 699.5 301 699.5 300C699.5 299 703.5 293 703.5 292C703.5 291 702.5 291 702.5 289C702.5 288 705.5 282 720.5 267Z"/>
<path d="M762.5 477C785.5 423 824.5 385 881.5 347C881.5 362 883.5 350 866.5 385C839.5 465 811.5 544 809.5 579C808.5 588 797.5 585 797.5 597C797.5 602 803.5 604 803.5 609C803.5 608 803.5 608 803.5 608C803.5 608 802.5 614 800.5 614C800.5 616 802.5 615 802.5 616C802.5 616 802.5 631 795.5 648C792.5 655 777.5 657 777.5 674C777.5 677 783.5 681 783.5 683C785.5 683 786.5 682 787.5 682C788.5 682 788.5 682 788.5 685C784.5 687 787.5 694 785.5 694L784.5 693C784.5 705 782.5 710 779.5 719C780.5 719 781.5 719 781.5 720C781.5 725 774.5 739 774.5 744C772.5 754 769.5 804 762.5 811C762.5 811 761.5 811 761.5 812C761.5 813 762.5 814 762.5 815C761.5 818 761.5 820 761.5 822C761.5 830 767.5 839 773.5 839C775.5 839 777.5 836 778.5 836C778.5 839 797.5 862 812.5 862C819.5 862 823.5 852 824.5 851L823.5 851C823.5 849 840.5 800 840.5 785C845.5 758 841.5 775 848.5 744C849.5 747 865.5 683 876.5 652C913.5 623 981.5 581 987.5 581C991.5 577 1027.5 559 1033.5 557C1058.5 544 1079.5 539 1094.5 534C1097.5 534 1126.5 521 1166.5 521C1183.5 521 1200.5 524 1200.5 536C1199.5 536 1198.5 538 1198.5 538C1198.5 539 1200.5 539 1200.5 539C1200.5 541 1198.5 541 1198.5 541C1198.5 543 1200.5 543 1200.5 543L1200.5 542C1198.5 542 1190.5 585 1190.5 585C1190.5 586 1191.5 586 1191.5 588C1191.5 588 1185.5 594 1185.5 598C1185.5 599 1186.5 599 1186.5 600C1178.5 608 1176.5 628 1172.5 630C1172.5 632 1174.5 631 1174.5 633C1168.5 639 1168.5 644 1165.5 650C1158.5 657 1156.5 660 1156.5 662C1156.5 663 1157.5 664 1157.5 666C1157.5 669 1153.5 671 1142.5 689C1141.5 689 1141.5 688 1141.5 688L1140.5 689C1140.5 690 1141.5 691 1141.5 692C1136.5 697 1108.5 724 1108.5 735C1108.5 741 1035.5 814 1027.5 814C996.5 836 1021.5 830 985.5 847C985.5 848 944.5 881 936.5 881C935.5 881 934.5 880 933.5 880C928.5 885 928.5 884 924.5 886C925.5 886 926.5 886 926.5 886C926.5 885 925.5 884 924.5 884C915.5 884 875.5 920 857.5 920C826.5 938 773.5 941 774.5 943C772.5 943 771.5 942 770.5 942C770.5 942 770.5 942 769.5 943C769.5 942 763.5 941 762.5 941C733.5 937 741.5 924 722.5 910C722.5 910 716.5 898 684.5 898C687.5 928 726.5 957 746.5 977C745.5 977 745.5 977 745.5 976C745.5 976 745.5 976 746.5 976C749.5 976 770.5 986 770.5 988C784.5 991 799.5 993 812.5 993C820.5 993 835.5 994 840.5 989C841.5 989 842.5 990 844.5 990C845.5 990 846.5 989 847.5 989C899.5 977 925.5 962 924.5 963C925.5 963 926.5 964 927.5 964C939.5 964 928.5 957 976.5 941C985.5 932 966.5 952 1032.5 908C1033.5 908 1060.5 892 1075.5 877C1074.5 878 1074.5 878 1074.5 878C1074.5 877 1088.5 860 1101.5 860C1100.5 861 1100.5 861 1100.5 861C1100.5 860 1125.5 844 1137.5 832C1166.5 813 1190.5 780 1208.5 752L1209.5 753C1238.5 698 1269.5 654 1269.5 588C1269.5 575 1267.5 556 1264.5 548C1263.5 546 1262.5 529 1246.5 517C1246.5 502 1208.5 486 1208.5 482C1208.5 483 1208.5 483 1207.5 483C1204.5 483 1190.5 472 1186.5 472C1184.5 472 1184.5 472 1184.5 470C1184.5 470 1183.5 471 1182.5 471C1181.5 471 1181.5 470 1181.5 470C1165.5 464 1151.5 461 1135.5 461C1113.5 461 1091.5 465 1070.5 470C1078.5 465 1089.5 456 1088.5 456C1094.5 456 1169.5 388 1177.5 382C1214.5 354 1258.5 286 1258.5 287C1257.5 288 1257.5 288 1257.5 288C1257.5 273 1271.5 270 1271.5 245C1271.5 212 1256.5 206 1256.5 201C1256.5 200 1257.5 199 1257.5 199C1257.5 199 1225.5 178 1225.5 174L1226.5 173C1218.5 173 1219.5 166 1211.5 166C1211.5 165 1212.5 164 1212.5 164C1211.5 163 1185.5 154 1164.5 154C1162.5 154 1162.5 155 1161.5 155C1160.5 155 1160.5 155 1160.5 154C1149.5 154 1138.5 158 1137.5 158C1135.5 158 1133.5 157 1132.5 157C1131.5 157 1130.5 159 1130.5 159C1129.5 159 1128.5 158 1128.5 158C1128.5 157 1129.5 157 1129.5 157C1112.5 157 1084.5 168 1066.5 173C1047.5 173 1013.5 194 1001.5 194C1000.5 194 998.5 193 998.5 192C998.5 191 999.5 190 999.5 190C995.5 190 991.5 189 987.5 189C974.5 189 969.5 199 961.5 207C961.5 207 932.5 239 924.5 239C923.5 239 922.5 238 921.5 238C898.5 261 881.5 261 862.5 280C862.5 280 861.5 280 860.5 280C859.5 280 859.5 280 859.5 280C851.5 288 846.5 291 845.5 292C803.5 320 833.5 312 789.5 337C778.5 348 745.5 376 745.5 389C746.5 389 746.5 388 746.5 388C746.5 388 730.5 395 720.5 438C719.5 438 719.5 437 719.5 437L718.5 438C718.5 439 719.5 440 719.5 441C716.5 446 715.5 456 715.5 462C715.5 481 753.5 513 753.5 512C762.5 512 788.5 505 788.5 493C787.5 487 783.5 485 777.5 482C776.5 482 775.5 483 774.5 483C770.5 483 772.5 479 769.5 479C766.5 479 762.5 480 762.5 477ZM907.5 266C912.5 263 918.5 262 921.5 257C923.5 257 923.5 262 923.5 262C923.5 264 919.5 261 878.5 292C871.5 295 874.5 289 845.5 318C824.5 318 786.5 380 746.5 420C746.5 419 746.5 419 746.5 419C744.5 419 731.5 441 731.5 448C730.5 447 751.5 410 751.5 405C751.5 402 768.5 382 774.5 375C779.5 370 821.5 330 821.5 328C821.5 330 821.5 330 821.5 330C821.5 330 847.5 305 854.5 302C854.5 302 855.5 303 856.5 303C857.5 303 859.5 298 860.5 297C861.5 297 862.5 298 863.5 298C874.5 298 860.5 294 883.5 283C887.5 283 893.5 268 905.5 268C907.5 268 907.5 268 907.5 266ZM805.5 704C797.5 743 787.5 779 781.5 820C779.5 818 779.5 816 779.5 815C779.5 803 784.5 787 786.5 775C786.5 774 785.5 772 785.5 770C785.5 768 786.5 768 788.5 768L788.5 769C788.5 757 794.5 704 805.5 704ZM817.5 643C818.5 644 819.5 645 819.5 647C819.5 651 815.5 654 812.5 654C814.5 650 815.5 646 817.5 643ZM831.5 583C832.5 584 833.5 585 833.5 586C833.5 589 829.5 591 826.5 591C827.5 588 829.5 586 831.5 583ZM840.5 558C839.5 560 834.5 561 834.5 564C833.5 564 833.5 563 833.5 562C833.5 555 838.5 536 840.5 536C840.5 536 840.5 538 840.5 539C845.5 539 839.5 515 890.5 380C895.5 380 888.5 364 898.5 354C899.5 354 899.5 355 900.5 355C900.5 355 899.5 355 899.5 354C899.5 354 900.5 352 904.5 342C904.5 344 904.5 344 904.5 344C904.5 344 906.5 323 921.5 320C909.5 346 897.5 376 886.5 406C877.5 430 875.5 455 860.5 484C860.5 485 860.5 487 860.5 488L860.5 487C851.5 487 856.5 535 840.5 558ZM918.5 524C917.5 526 916.5 527 915.5 527C914.5 527 914.5 527 914.5 526C914.5 521 919.5 520 919.5 515C920.5 515 921.5 516 922.5 516C926.5 516 933.5 503 937.5 503C936.5 503 936.5 503 936.5 503C936.5 501 969.5 484 969.5 475C970.5 475 971.5 476 972.5 476C971.5 476 1058.5 405 1123.5 342C1140.5 326 1194.5 283 1194.5 270C1194.5 265 1209.5 249 1211.5 249C1212.5 249 1212.5 249 1212.5 249C1212.5 250 1199.5 261 1199.5 267C1199.5 268 1200.5 269 1200.5 270C1198.5 270 1190.5 279 1190.5 279C1190.5 280 1191.5 281 1191.5 282C1186.5 282 1177.5 298 1163.5 313C1075.5 406 1055.5 404 987.5 472C986.5 472 970.5 486 938.5 510C939.5 509 939.5 509 939.5 509C939.5 510 926.5 524 918.5 524ZM940.5 901C935.5 903 931.5 904 925.5 907C945.5 896 973.5 880 987.5 866C987.5 866 988.5 867 989.5 867C995.5 859 1007.5 853 1021.5 842C1045.5 829 1019.5 852 1136.5 735C1136.5 734 1135.5 733 1135.5 733C1135.5 732 1142.5 730 1146.5 721C1146.5 721 1145.5 720 1145.5 719C1145.5 718 1146.5 718 1146.5 718C1145.5 718 1156.5 699 1162.5 699C1162.5 698 1161.5 697 1161.5 696C1161.5 694 1165.5 695 1165.5 693C1165.5 693 1164.5 692 1164.5 691C1164.5 688 1187.5 654 1191.5 643C1192.5 643 1192.5 644 1192.5 645C1192.5 644 1192.5 644 1192.5 644C1192.5 644 1170.5 702 1163.5 702C1163.5 709 1148.5 706 1148.5 727C1148.5 729 1149.5 729 1149.5 730C1149.5 731 1146.5 734 1129.5 754C1129.5 754 1116.5 762 1110.5 777C1108.5 778 1077.5 809 1072.5 809C1072.5 810 1054.5 831 1046.5 831C1045.5 831 1044.5 830 1044.5 830C1038.5 836 1005.5 862 1003.5 862C1002.5 862 1001.5 861 1001.5 861C993.5 869 998.5 855 969.5 884C967.5 893 942.5 888 942.5 898C941.5 898 941.5 901 940.5 901ZM930.5 488C928.5 489 928.5 491 924.5 491C924.5 490 925.5 489 926.5 489C935.5 442 949.5 405 973.5 349C973.5 327 1010.5 266 1016.5 266C1016.5 266 1016.5 267 1017.5 267C1022.5 267 1039.5 262 1049.5 252C1050.5 251 1051.5 251 1052.5 251C1053.5 251 1054.5 252 1056.5 252C1059.5 252 1069.5 249 1099.5 235C1099.5 234 1138.5 219 1198.5 219C1201.5 219 1203.5 219 1203.5 221C1203.5 228 1193.5 235 1193.5 238C1193.5 240 1194.5 239 1194.5 240C1194.5 242 1188.5 248 1145.5 296C1144.5 296 1143.5 295 1142.5 295C1142.5 296 1142.5 297 1142.5 298C1111.5 326 1079.5 359 1049.5 389C1048.5 389 1047.5 389 1046.5 389C1027.5 412 1003.5 428 971.5 455C962.5 461 957.5 461 930.5 488ZM968.5 233C965.5 238 960.5 242 954.5 244C956.5 237 961.5 235 968.5 233ZM1033.5 501C1034.5 501 1035.5 502 1035.5 502C1035.5 503 1030.5 505 1028.5 505C1030.5 503 1031.5 502 1033.5 501ZM1046.5 200C1043.5 202 1036.5 205 1030.5 206C1036.5 198 1049.5 197 1058.5 193C1058.5 193 1058.5 194 1059.5 194C1063.5 194 1074.5 187 1082.5 186C1075.5 193 1057.5 193 1046.5 200Z"/>
</g>
</g>
</svg>
